<?xml version="1.0" standalone="no"?>
<!DOCTYPE svg PUBLIC "-//W3C//DTD SVG 20010904//EN"
 "http://www.w3.org/TR/2001/REC-SVG-20010904/DTD/svg10.dtd">
<svg version="1.0" xmlns="http://www.w3.org/2000/svg"
 width="255.000000pt" height="197.000000pt" viewBox="0 0 255.000000 197.000000"
 preserveAspectRatio="xMidYMid meet">

<g transform="translate(0.000000,197.000000) scale(0.100000,-0.100000)"
fill="#000000" stroke="none">
<path d="M601 1926 c-53 -19 -111 -74 -137 -130 -67 -144 3 -313 148 -362 l48
-16 0 -256 c0 -227 3 -262 19 -297 26 -57 88 -110 148 -125 43 -11 52 -18 73
-57 45 -85 152 -118 240 -73 73 37 112 129 90 211 -23 84 -122 150 -203 135
-72 -13 -147 -89 -147 -147 0 -23 -5 -29 -20 -29 -38 0 -100 40 -127 82 -28
41 -28 43 -31 237 l-4 195 41 -36 c34 -32 92 -58 127 -58 6 0 14 -12 17 -27
15 -76 88 -133 170 -133 86 0 148 45 174 125 10 30 10 30 82 30 l73 0 13 -38
c26 -76 84 -117 165 -117 70 0 117 24 152 79 26 41 29 53 26 112 -3 54 -9 73
-31 103 -87 114 -261 87 -313 -50 l-17 -45 -69 3 -70 3 -13 38 c-31 91 -126
141 -219 116 -49 -13 -111 -74 -121 -120 -7 -29 -9 -31 -41 -26 -62 10 -122
70 -138 138 -5 25 -3 27 31 34 82 15 155 75 189 153 24 56 22 160 -5 216 -28
56 -97 118 -149 134 -49 15 -127 14 -171 -2z m150 -37 c165 -50 201 -285 59
-384 -86 -59 -184 -50 -260 24 -114 110 -82 285 65 352 47 22 83 24 136 8z
m368 -547 c98 -53 92 -195 -11 -248 -57 -30 -129 -5 -169 58 -29 48 -22 118
17 160 49 51 104 62 163 30z m531 -17 c74 -71 58 -184 -30 -230 -86 -45 -190
23 -190 124 0 88 59 145 143 138 35 -3 56 -12 77 -32z m-529 -430 c88 -46 91
-184 6 -240 -115 -75 -255 61 -189 183 35 66 116 91 183 57z"/>
<path d="M607 1792 c-13 -15 -17 -39 -17 -115 0 -90 2 -98 24 -112 28 -18 38
-15 134 43 68 41 73 46 70 75 -3 27 -13 37 -83 79 -88 53 -104 57 -128 30z
m103 -68 c33 -20 59 -41 58 -46 -2 -5 -31 -25 -66 -44 l-62 -35 0 80 c0 45 2
81 4 81 3 0 32 -16 66 -36z"/>
<path d="M1073 1248 c-30 -30 -34 -31 -58 -18 -19 10 -28 11 -37 2 -9 -9 -5
-19 17 -42 16 -16 34 -30 40 -30 18 0 108 97 101 109 -12 18 -30 12 -63 -21z"/>
<path d="M1572 1248 c-25 -25 -34 -30 -44 -20 -16 16 -48 15 -48 -1 0 -15 51
-67 66 -67 17 0 94 85 94 103 0 27 -32 20 -68 -15z"/>
<path d="M270 255 c0 -8 5 -15 10 -15 6 0 10 7 10 15 0 8 -4 15 -10 15 -5 0
-10 -7 -10 -15z"/>
<path d="M940 155 c0 -70 4 -115 10 -115 6 0 10 5 10 10 0 7 6 7 19 0 52 -27
91 5 91 77 0 30 -6 49 -20 63 -21 21 -55 26 -65 10 -13 -22 -25 -8 -25 30 0
22 -4 40 -10 40 -6 0 -10 -45 -10 -115z m94 19 c19 -19 21 -74 3 -98 -8 -11
-23 -17 -38 -14 -34 4 -49 65 -25 102 19 30 38 33 60 10z"/>
<path d="M1920 255 c0 -8 5 -15 10 -15 6 0 10 7 10 15 0 8 -4 15 -10 15 -5 0
-10 -7 -10 -15z"/>
<path d="M46 241 c-59 -65 -24 -201 51 -201 47 0 63 17 63 65 0 43 -1 45 -30
45 -16 0 -30 -4 -30 -10 0 -5 7 -10 15 -10 10 0 15 -11 15 -35 0 -32 -3 -35
-29 -35 -38 0 -53 21 -58 78 -6 70 12 97 65 97 53 0 49 19 -4 23 -30 2 -45 -2
-58 -17z"/>
<path d="M570 150 c0 -67 4 -110 10 -110 6 0 10 25 10 55 l0 55 45 0 45 0 0
-56 c0 -40 3 -55 13 -52 8 3 13 37 15 111 2 91 0 107 -13 107 -11 0 -15 -11
-15 -46 l0 -45 -42 3 c-43 3 -43 3 -46 46 -2 23 -7 42 -13 42 -5 0 -9 -48 -9
-110z"/>
<path d="M1321 161 c-34 -108 -36 -121 -21 -121 6 0 13 14 17 30 5 28 9 30 48
30 40 0 44 -2 50 -30 4 -17 13 -30 21 -30 11 0 13 6 8 23 -4 12 -19 60 -33
107 -37 119 -51 118 -90 -9z m67 9 c6 -24 9 -46 7 -48 -1 -2 -16 -2 -32 0
l-30 3 15 53 c17 59 24 58 40 -8z"/>
<path d="M430 226 c0 -19 -6 -26 -27 -29 l-28 -4 28 -2 c27 -1 27 -2 27 -66 0
-61 2 -66 26 -75 33 -13 54 -13 54 0 0 6 -11 10 -24 10 -29 0 -36 16 -36 80 0
47 1 49 33 53 l32 4 -32 1 c-28 2 -33 6 -33 27 0 14 -4 25 -10 25 -5 0 -10
-11 -10 -24z"/>
<path d="M1708 228 c-2 -14 -13 -25 -28 -29 l-25 -7 28 -1 c27 -1 27 -2 27
-66 0 -68 12 -85 59 -85 31 0 25 18 -6 22 -27 3 -28 6 -31 65 l-3 62 33 4 33
4 -32 1 c-28 2 -33 6 -33 27 0 31 -17 33 -22 3z"/>
<path d="M1533 200 c-77 -31 -43 -166 39 -158 17 2 33 8 35 14 2 6 -10 8 -31
6 -26 -3 -37 1 -50 19 -9 13 -16 33 -16 44 0 11 7 31 16 44 13 18 24 22 50 19
35 -4 46 5 18 16 -20 8 -34 7 -61 -4z"/>
<path d="M2055 185 c-51 -50 -23 -145 43 -145 42 0 64 29 64 86 0 78 -57 109
-107 59z m75 -14 c15 -28 12 -87 -4 -101 -8 -6 -25 -10 -38 -8 -33 4 -48 66
-24 102 20 31 51 34 66 7z"/>
<path d="M2264 194 c-18 -15 -18 -15 4 -9 38 11 52 -10 52 -81 0 -36 4 -64 10
-64 6 0 10 30 10 69 0 92 -28 124 -76 85z"/>
<path d="M2428 199 c-11 -6 -18 -22 -18 -39 0 -24 6 -30 43 -42 31 -9 42 -18
42 -33 0 -17 -7 -20 -43 -20 -48 0 -52 -18 -4 -23 42 -4 72 13 72 42 0 27 -13
39 -55 53 -20 6 -30 16 -30 29 0 15 7 19 38 19 39 0 48 9 21 19 -22 9 -46 7
-66 -5z"/>
<path d="M248 193 c20 -4 22 -10 22 -69 0 -62 -1 -64 -25 -64 -14 0 -25 -4
-25 -10 0 -6 28 -10 65 -10 37 0 65 4 65 10 0 6 -13 10 -30 10 l-30 0 0 70 0
70 -32 -1 c-24 -1 -27 -3 -10 -6z"/>
<path d="M760 139 c0 -33 5 -69 10 -80 12 -21 41 -25 71 -9 13 7 19 7 19 0 0
-5 5 -10 10 -10 6 0 10 33 10 80 0 47 -4 80 -10 80 -5 0 -10 -23 -10 -51 0
-62 -13 -89 -44 -89 -29 0 -36 16 -36 86 0 30 -4 54 -10 54 -6 0 -10 -27 -10
-61z"/>
<path d="M1890 191 c23 -6 25 -12 28 -69 l3 -62 -31 0 c-16 0 -30 -4 -30 -10
0 -6 28 -10 65 -10 37 0 65 4 65 10 0 6 -11 10 -25 10 -24 0 -25 2 -25 70 l0
70 -37 -1 c-33 -1 -34 -2 -13 -8z"/>
<path d="M2220 120 c0 -97 17 -107 22 -12 4 72 1 92 -13 92 -5 0 -9 -36 -9
-80z"/>
</g>
</svg>
