<svg id="svg" version="1.1" xmlns="http://www.w3.org/2000/svg" xmlns:xlink="http://www.w3.org/1999/xlink" width="400" height="444.5969125214408" viewBox="0, 0, 400,444.5969125214408"><g id="svgg"><path id="path0" d="M145.197 197.641 C 141.349 199.864,135.320 203.354,131.800 205.397 C 128.280 207.440,124.500 209.605,123.400 210.208 C 118.578 212.850,118.800 211.761,118.800 232.800 C 118.800 247.069,118.907 250.683,119.364 251.777 C 119.959 253.199,120.605 253.617,135.200 262.017 C 138.390 263.853,143.610 266.861,146.800 268.701 C 153.627 272.639,153.792 272.655,158.535 269.851 C 160.257 268.833,161.729 268.000,161.806 268.000 C 161.882 268.000,164.226 266.650,167.013 265.000 C 169.800 263.350,172.134 262.000,172.198 262.000 C 172.263 262.000,175.171 260.335,178.661 258.300 C 182.151 256.265,185.492 254.349,186.085 254.042 C 188.371 252.860,188.401 252.586,188.394 232.540 C 188.387 210.707,189.081 213.183,181.790 208.971 C 178.715 207.195,172.573 203.646,168.139 201.085 C 163.705 198.523,159.205 195.949,158.139 195.364 C 157.073 194.780,156.029 194.143,155.820 193.951 C 154.549 192.778,152.210 193.590,145.197 197.641 M159.370 223.045 C 166.067 226.944,165.600 226.167,165.600 233.400 C 165.600 240.656,166.060 239.899,159.300 243.776 C 153.074 247.346,153.933 247.382,147.200 243.259 L 142.200 240.197 142.090 233.652 C 142.020 229.523,142.134 226.920,142.398 226.602 C 142.784 226.137,147.506 223.255,150.800 221.475 C 151.570 221.059,152.371 220.557,152.580 220.359 C 153.304 219.675,154.165 220.015,159.370 223.045 " stroke="none" fill="#fafbf9" fill-rule="evenodd"></path><path id="path1" d="M259.067 149.067 C 258.920 149.213,258.800 160.205,258.800 173.493 C 258.800 189.382,258.658 197.917,258.386 198.426 C 257.764 199.589,257.121 199.413,252.432 196.800 C 246.898 193.716,246.571 193.717,241.198 196.841 C 238.889 198.184,236.280 199.685,235.400 200.178 C 232.092 202.028,222.031 207.824,217.570 210.449 C 211.478 214.034,212.000 211.873,212.001 233.519 C 212.003 255.697,211.123 253.106,220.421 258.303 C 221.203 258.740,227.184 262.181,233.712 265.949 C 247.445 273.876,246.394 273.620,251.967 270.400 C 254.252 269.080,256.169 268.000,256.227 268.000 C 256.286 268.000,258.283 266.860,260.667 265.467 C 263.050 264.074,268.240 261.072,272.200 258.797 C 276.160 256.523,279.805 254.301,280.300 253.861 L 281.200 253.061 281.200 206.975 C 281.200 163.667,281.158 160.838,280.500 160.057 C 279.557 158.935,261.268 148.800,260.188 148.800 C 259.718 148.800,259.213 148.920,259.067 149.067 M43.432 202.535 C 32.642 208.702,26.916 212.198,26.563 212.835 C 26.005 213.842,25.700 261.954,26.243 263.367 C 26.741 264.665,28.693 263.865,38.055 258.527 C 49.977 251.731,48.800 253.865,48.800 239.046 C 48.800 224.966,48.519 225.938,53.469 222.889 C 60.884 218.322,60.295 218.342,67.099 222.417 C 72.692 225.767,72.169 224.147,72.400 238.819 C 72.589 250.803,72.645 251.567,73.400 252.402 C 74.044 253.113,82.506 258.400,83.001 258.400 C 83.074 258.400,84.904 259.435,87.067 260.700 C 92.517 263.887,92.953 264.089,94.040 263.936 L 95.000 263.800 95.103 238.526 L 95.206 213.252 94.303 212.261 C 93.806 211.717,92.581 210.829,91.579 210.288 C 90.578 209.747,85.448 206.816,80.179 203.775 C 74.911 200.734,68.629 197.111,66.220 195.723 C 60.404 192.372,62.106 191.863,43.432 202.535 M332.800 196.947 C 329.610 198.782,324.628 201.655,321.728 203.332 C 318.829 205.010,315.859 206.722,315.128 207.139 C 303.451 213.792,304.803 210.407,304.803 233.000 C 304.803 254.075,304.618 252.957,308.464 255.079 C 310.835 256.388,312.545 257.361,316.400 259.600 C 317.830 260.430,319.720 261.511,320.600 262.002 C 321.480 262.493,325.350 264.703,329.200 266.914 C 333.050 269.125,336.650 271.173,337.200 271.465 C 338.468 272.137,339.922 272.140,341.200 271.473 C 344.516 269.741,350.261 266.643,350.600 266.403 C 350.820 266.248,352.350 265.397,354.000 264.512 C 363.302 259.524,363.751 260.548,348.400 251.737 C 341.690 247.885,335.250 244.201,334.089 243.549 C 332.928 242.897,331.128 241.864,330.089 241.254 L 328.200 240.144 328.200 233.172 L 328.200 226.200 333.400 223.102 C 339.746 219.322,339.433 219.324,345.719 223.030 C 351.714 226.564,351.600 226.379,351.600 232.577 C 351.600 239.313,351.351 239.265,359.745 234.134 C 375.441 224.539,374.160 225.968,373.937 218.296 C 373.782 212.997,373.469 212.420,369.600 210.305 C 368.133 209.503,356.442 202.809,346.600 197.136 C 339.116 192.821,339.953 192.833,332.800 196.947 M252.380 223.173 C 258.899 227.047,258.387 226.167,258.394 233.500 C 258.401 240.315,258.382 240.367,255.317 241.950 C 254.482 242.381,252.270 243.648,250.400 244.766 C 246.287 247.226,246.824 247.216,242.951 244.900 C 241.204 243.855,239.087 242.640,238.248 242.200 C 234.802 240.393,234.799 240.386,234.806 233.519 C 234.813 226.182,234.316 227.061,240.637 223.217 C 246.966 219.368,245.982 219.371,252.380 223.173 M336.777 226.685 C 332.731 228.932,332.800 228.826,332.800 232.782 L 332.800 236.241 335.869 237.987 C 339.601 240.110,339.204 240.108,342.718 238.021 L 345.600 236.309 345.600 232.583 L 345.600 228.858 343.300 227.479 C 339.252 225.053,339.634 225.099,336.777 226.685 " stroke="none" fill="#646c63" fill-rule="evenodd"></path><path id="path2" d="M191.700 0.275 C 190.985 0.371,190.400 0.600,190.400 0.782 C 190.400 1.122,188.462 1.791,187.870 1.656 C 187.689 1.614,187.636 1.735,187.753 1.924 C 187.965 2.267,185.271 3.809,184.700 3.672 C 184.535 3.632,184.400 3.751,184.400 3.936 C 184.400 4.121,183.455 4.781,182.300 5.402 C 181.145 6.023,179.448 7.041,178.528 7.665 C 177.608 8.289,176.586 8.800,176.257 8.800 C 175.927 8.800,175.412 9.025,175.112 9.300 C 174.369 9.981,173.267 10.672,171.600 11.502 C 170.830 11.886,170.110 12.292,170.000 12.404 C 169.890 12.516,169.085 12.966,168.211 13.404 C 167.337 13.842,166.268 14.515,165.835 14.900 C 165.403 15.285,164.903 15.623,164.725 15.650 C 164.546 15.678,164.265 15.723,164.100 15.751 C 163.935 15.778,163.260 16.167,162.600 16.615 C 161.940 17.063,160.860 17.684,160.200 17.996 C 159.540 18.308,158.640 18.864,158.200 19.231 C 157.067 20.177,153.600 22.040,153.600 21.703 C 153.600 21.548,153.325 21.815,152.989 22.294 C 152.653 22.774,152.147 23.078,151.864 22.969 C 151.581 22.861,151.018 23.138,150.613 23.586 C 150.208 24.034,149.544 24.400,149.138 24.400 C 148.732 24.400,148.400 24.551,148.400 24.736 C 148.400 24.920,147.682 25.415,146.805 25.836 C 145.927 26.256,145.207 26.735,145.205 26.900 C 145.202 27.065,144.840 27.200,144.400 27.200 C 143.960 27.200,143.600 27.377,143.600 27.592 C 143.600 27.808,143.150 28.098,142.600 28.236 C 142.050 28.374,141.600 28.647,141.600 28.843 C 141.600 29.040,141.330 29.200,141.000 29.200 C 140.670 29.200,140.400 29.380,140.400 29.600 C 140.400 29.820,140.040 30.000,139.600 30.000 C 139.160 30.000,138.800 30.191,138.800 30.424 C 138.800 30.657,138.647 30.753,138.461 30.637 C 138.274 30.522,137.741 30.781,137.277 31.214 C 136.813 31.646,136.246 32.000,136.017 32.000 C 135.788 32.000,135.600 32.180,135.600 32.400 C 135.600 32.620,135.240 32.800,134.800 32.800 C 134.360 32.800,134.000 32.976,134.000 33.190 C 134.000 33.584,130.802 35.200,130.022 35.200 C 129.790 35.200,129.600 35.359,129.600 35.552 C 129.600 35.746,128.610 36.406,127.400 37.018 C 126.190 37.630,125.200 38.281,125.200 38.465 C 125.200 38.649,124.930 38.800,124.600 38.800 C 124.270 38.800,124.000 38.980,124.000 39.200 C 124.000 39.420,123.640 39.600,123.200 39.600 C 122.760 39.600,122.400 39.777,122.400 39.992 C 122.400 40.208,121.950 40.498,121.400 40.636 C 120.850 40.774,120.400 41.033,120.400 41.212 C 120.400 41.390,119.879 41.651,119.241 41.791 C 118.604 41.931,117.766 42.395,117.379 42.823 C 116.993 43.250,116.434 43.600,116.138 43.600 C 115.842 43.600,115.598 43.735,115.595 43.900 C 115.593 44.065,114.873 44.544,113.995 44.964 C 113.118 45.385,112.400 45.841,112.400 45.979 C 112.400 46.117,112.011 46.259,111.536 46.295 C 111.061 46.331,110.566 46.517,110.436 46.710 C 110.306 46.903,109.615 47.401,108.900 47.816 C 108.185 48.232,107.600 48.691,107.600 48.836 C 107.600 48.981,107.105 49.200,106.500 49.323 C 105.895 49.445,104.990 49.929,104.489 50.398 C 103.988 50.867,103.236 51.277,102.817 51.309 C 102.398 51.340,102.135 51.494,102.231 51.650 C 102.328 51.807,101.853 52.057,101.175 52.206 C 100.497 52.354,100.049 52.583,100.179 52.713 C 100.406 52.940,97.756 54.324,97.064 54.339 C 96.879 54.343,96.479 54.674,96.176 55.073 C 95.873 55.473,95.620 55.658,95.613 55.484 C 95.606 55.311,95.213 55.530,94.739 55.971 C 94.266 56.412,93.726 56.678,93.539 56.563 C 93.353 56.447,93.200 56.543,93.200 56.776 C 93.200 57.009,92.930 57.200,92.600 57.200 C 92.270 57.200,92.000 57.380,92.000 57.600 C 92.000 57.820,91.803 58.000,91.562 58.000 C 91.321 58.000,90.601 58.372,89.962 58.827 C 89.323 59.282,88.797 59.507,88.794 59.327 C 88.791 59.147,88.656 59.180,88.494 59.401 C 88.332 59.621,87.660 60.071,87.000 60.400 C 86.340 60.729,85.710 61.091,85.600 61.203 C 85.008 61.808,81.742 63.733,81.308 63.733 C 81.029 63.733,80.800 63.842,80.800 63.976 C 80.800 64.109,80.125 64.574,79.300 65.009 C 78.475 65.444,76.408 66.655,74.707 67.700 C 73.006 68.745,71.341 69.600,71.007 69.600 C 70.673 69.600,70.400 69.759,70.400 69.952 C 70.400 70.146,69.365 70.819,68.100 71.448 C 66.835 72.077,65.710 72.704,65.600 72.842 C 65.490 72.980,65.027 73.208,64.571 73.351 C 64.114 73.493,63.394 73.922,62.971 74.305 C 62.547 74.687,61.485 75.360,60.611 75.800 C 59.737 76.240,58.668 76.915,58.235 77.300 C 57.803 77.685,57.145 78.000,56.774 78.000 C 56.402 78.000,55.874 78.270,55.600 78.600 C 55.326 78.930,54.854 79.200,54.551 79.200 C 54.248 79.200,54.000 79.380,54.000 79.600 C 54.000 79.820,53.730 80.000,53.400 80.000 C 53.070 80.000,52.798 80.135,52.796 80.300 C 52.794 80.465,51.984 80.955,50.996 81.390 C 50.008 81.824,49.200 82.319,49.200 82.490 C 49.200 82.660,48.991 82.800,48.735 82.800 C 48.480 82.800,46.545 83.836,44.435 85.101 C 42.326 86.367,39.925 87.758,39.100 88.192 C 38.275 88.627,37.600 89.121,37.600 89.291 C 37.600 89.461,37.240 89.600,36.800 89.600 C 36.360 89.600,36.000 89.780,36.000 90.000 C 36.000 90.220,35.752 90.400,35.449 90.400 C 35.146 90.400,34.688 90.652,34.432 90.961 C 34.176 91.270,33.029 91.989,31.883 92.559 C 29.571 93.710,28.304 94.463,27.996 94.868 C 27.884 95.016,27.259 95.270,26.607 95.434 C 25.955 95.598,25.108 96.107,24.724 96.566 C 24.341 97.025,24.021 97.253,24.013 97.073 C 24.006 96.893,23.492 97.107,22.872 97.549 C 22.251 97.991,21.486 98.408,21.172 98.476 C 20.857 98.544,20.330 98.889,20.000 99.243 C 19.489 99.790,17.860 100.529,17.200 100.512 C 17.090 100.510,16.765 100.843,16.477 101.254 C 16.190 101.664,15.730 102.000,15.455 102.000 C 15.181 102.000,14.291 102.609,13.478 103.354 C 12.665 104.099,12.000 104.633,12.000 104.540 C 12.000 104.384,11.562 104.856,8.475 108.342 C 7.029 109.975,4.906 114.239,4.174 116.981 C 3.574 119.232,3.309 327.200,3.907 327.200 C 4.074 327.200,4.435 328.145,4.709 329.300 C 4.983 330.455,5.386 331.460,5.604 331.533 C 5.822 331.607,6.000 332.072,6.000 332.568 C 6.000 333.513,8.857 337.834,10.061 338.709 C 10.446 338.989,11.027 339.484,11.352 339.809 C 11.677 340.134,12.054 340.400,12.189 340.400 C 12.324 340.400,12.920 340.850,13.513 341.400 C 14.107 341.950,14.898 342.400,15.273 342.400 C 15.648 342.400,16.190 342.731,16.477 343.135 C 16.765 343.540,17.454 343.983,18.008 344.120 C 18.562 344.257,19.410 344.736,19.891 345.185 C 20.373 345.633,20.971 346.000,21.222 346.000 C 21.472 346.000,22.175 346.355,22.783 346.788 C 23.392 347.222,24.005 347.462,24.145 347.322 C 24.285 347.181,24.400 347.277,24.400 347.533 C 24.400 347.790,24.681 348.000,25.024 348.000 C 25.367 348.000,25.536 348.180,25.400 348.400 C 25.264 348.620,25.510 348.800,25.946 348.800 C 26.382 348.800,27.273 349.250,27.927 349.800 C 28.581 350.350,29.315 350.800,29.558 350.800 C 29.801 350.800,30.000 350.991,30.000 351.224 C 30.000 351.457,30.159 351.549,30.353 351.429 C 30.547 351.309,31.132 351.543,31.653 351.949 C 32.447 352.568,34.901 353.990,35.600 354.237 C 35.710 354.276,36.205 354.439,36.700 354.600 C 37.195 354.762,37.600 355.031,37.600 355.200 C 37.600 355.369,37.915 355.612,38.300 355.742 C 38.685 355.871,39.270 356.161,39.600 356.386 C 41.716 357.831,46.248 360.400,46.682 360.400 C 46.967 360.400,47.200 360.568,47.200 360.773 C 47.200 360.978,47.605 361.269,48.100 361.419 C 48.595 361.569,49.360 361.996,49.800 362.369 C 50.240 362.741,51.726 363.619,53.103 364.321 C 56.087 365.842,57.330 366.528,57.600 366.804 C 57.710 366.916,58.475 367.362,59.300 367.795 C 60.125 368.228,60.800 368.721,60.800 368.891 C 60.800 369.061,61.141 369.200,61.557 369.200 C 61.974 369.200,62.419 369.472,62.546 369.804 C 62.673 370.136,62.918 370.374,63.089 370.334 C 63.593 370.215,65.600 371.297,65.600 371.688 C 65.600 371.885,65.775 371.939,65.989 371.807 C 66.203 371.674,66.686 371.924,67.061 372.362 C 67.436 372.801,67.891 373.068,68.071 372.956 C 68.252 372.844,68.400 372.943,68.400 373.176 C 68.400 373.409,68.535 373.562,68.700 373.515 C 69.160 373.385,70.960 374.449,71.325 375.067 C 71.503 375.369,71.818 375.512,72.025 375.385 C 72.231 375.257,72.400 375.354,72.400 375.600 C 72.400 375.846,72.560 375.949,72.755 375.828 C 72.950 375.707,73.332 375.877,73.604 376.204 C 73.876 376.532,74.346 376.800,74.649 376.800 C 74.952 376.800,75.200 376.991,75.200 377.224 C 75.200 377.457,75.380 377.536,75.600 377.400 C 75.820 377.264,76.000 377.343,76.000 377.576 C 76.000 377.809,76.270 378.000,76.600 378.000 C 76.930 378.000,77.200 378.191,77.200 378.424 C 77.200 378.657,77.365 378.745,77.568 378.620 C 77.770 378.495,78.178 378.619,78.474 378.896 C 78.770 379.173,79.729 379.758,80.606 380.196 C 81.483 380.634,82.290 381.085,82.400 381.199 C 82.510 381.313,83.590 381.933,84.800 382.576 C 86.010 383.220,88.217 384.524,89.704 385.473 C 91.191 386.423,92.586 387.200,92.804 387.200 C 93.022 387.200,93.200 387.345,93.200 387.523 C 93.200 387.701,93.920 388.164,94.800 388.552 C 95.680 388.940,96.400 389.425,96.400 389.629 C 96.400 389.833,96.535 389.971,96.700 389.936 C 97.189 389.833,98.492 390.462,100.239 391.644 C 101.140 392.255,102.355 392.874,102.939 393.020 C 103.522 393.167,104.000 393.426,104.000 393.596 C 104.000 393.766,105.035 394.421,106.300 395.052 C 107.565 395.684,108.947 396.513,109.371 396.895 C 109.794 397.278,110.469 397.695,110.871 397.822 C 111.272 397.950,111.600 398.252,111.600 398.494 C 111.600 398.735,111.705 398.828,111.834 398.699 C 112.159 398.375,114.400 399.196,114.400 399.639 C 114.400 399.838,114.670 400.000,115.000 400.000 C 115.330 400.000,115.600 400.180,115.600 400.400 C 115.600 400.620,115.960 400.800,116.400 400.800 C 116.840 400.800,117.200 400.981,117.200 401.201 C 117.200 401.422,117.920 401.914,118.800 402.296 C 119.680 402.677,120.400 403.126,120.400 403.294 C 120.400 403.462,120.760 403.600,121.200 403.600 C 121.640 403.600,122.000 403.768,122.000 403.973 C 122.000 404.178,122.405 404.474,122.900 404.630 C 123.395 404.787,124.101 405.261,124.470 405.683 C 124.838 406.106,125.198 406.414,125.270 406.368 C 125.579 406.166,127.200 406.888,127.200 407.227 C 127.200 407.432,127.474 407.600,127.809 407.600 C 128.442 407.600,131.700 409.575,131.933 410.100 C 132.007 410.265,132.412 410.400,132.833 410.400 C 133.255 410.400,133.600 410.580,133.600 410.800 C 133.600 411.020,133.870 411.200,134.200 411.200 C 134.530 411.200,134.800 411.341,134.800 411.512 C 134.800 411.684,135.295 412.033,135.900 412.287 C 136.505 412.541,137.990 413.327,139.200 414.033 C 140.410 414.738,142.255 415.765,143.300 416.315 C 144.345 416.864,145.200 417.468,145.200 417.657 C 145.200 417.846,145.566 418.000,146.013 418.000 C 146.459 418.000,146.928 418.269,147.054 418.598 C 147.181 418.926,147.430 419.105,147.610 418.994 C 147.789 418.883,148.207 419.064,148.539 419.396 C 148.871 419.728,149.314 420.000,149.522 420.000 C 149.731 420.000,150.124 420.268,150.396 420.596 C 150.668 420.923,151.052 421.092,151.248 420.970 C 151.445 420.849,151.714 421.031,151.846 421.375 C 151.978 421.719,152.392 422.000,152.767 422.000 C 153.142 422.000,153.803 422.315,154.235 422.700 C 154.668 423.085,155.737 423.758,156.611 424.196 C 157.485 424.634,158.290 425.098,158.400 425.228 C 158.510 425.357,159.140 425.730,159.800 426.058 C 161.299 426.801,162.937 427.737,163.200 428.000 C 163.310 428.110,164.435 428.725,165.700 429.367 C 166.965 430.008,168.000 430.713,168.000 430.933 C 168.000 431.153,168.113 431.220,168.251 431.082 C 168.389 430.944,169.244 431.340,170.151 431.961 C 171.058 432.582,172.208 433.218,172.706 433.374 C 173.214 433.533,173.494 433.847,173.344 434.091 C 173.197 434.329,173.252 434.415,173.466 434.283 C 173.681 434.150,174.474 434.424,175.228 434.891 C 175.983 435.359,177.770 436.365,179.200 437.128 C 180.630 437.891,181.860 438.669,181.933 438.857 C 182.007 439.046,182.412 439.200,182.833 439.200 C 183.255 439.200,183.600 439.339,183.600 439.509 C 183.600 439.679,184.230 440.157,185.000 440.572 C 185.770 440.987,186.400 441.478,186.400 441.663 C 186.400 441.848,186.749 442.000,187.176 442.000 C 187.603 442.000,188.052 442.160,188.173 442.356 C 188.294 442.551,188.887 442.836,189.492 442.987 C 190.097 443.139,190.722 443.474,190.881 443.732 C 191.379 444.538,205.989 444.627,208.400 443.838 C 209.473 443.487,210.554 443.200,210.802 443.200 C 211.050 443.200,211.843 442.750,212.564 442.200 C 213.286 441.650,214.184 441.200,214.561 441.200 C 214.939 441.200,215.155 441.051,215.042 440.869 C 214.930 440.686,215.594 440.204,216.519 439.796 C 217.443 439.389,218.438 438.818,218.729 438.528 C 219.019 438.237,219.615 438.000,220.052 438.000 C 220.489 438.000,220.755 437.850,220.642 437.668 C 220.529 437.485,221.058 437.091,221.818 436.793 C 222.578 436.495,223.200 436.116,223.200 435.952 C 223.200 435.788,223.605 435.531,224.100 435.382 C 224.595 435.232,225.931 434.500,227.068 433.755 C 228.205 433.010,229.398 432.400,229.719 432.400 C 230.040 432.400,230.526 432.130,230.800 431.800 C 231.074 431.470,231.518 431.200,231.787 431.200 C 232.056 431.200,232.602 430.840,233.000 430.400 C 233.398 429.960,233.951 429.600,234.229 429.600 C 234.506 429.600,234.793 429.465,234.867 429.300 C 235.063 428.857,237.570 427.600,238.256 427.600 C 238.581 427.600,238.736 427.420,238.600 427.200 C 238.464 426.980,238.633 426.800,238.976 426.800 C 239.319 426.800,239.600 426.643,239.600 426.450 C 239.600 426.257,240.095 426.000,240.700 425.877 C 241.305 425.755,242.174 425.305,242.631 424.876 C 243.088 424.448,243.898 423.965,244.431 423.803 C 244.964 423.641,245.760 423.204,246.200 422.833 C 246.640 422.462,247.675 421.812,248.500 421.388 C 249.325 420.965,250.000 420.468,250.000 420.285 C 250.000 420.102,250.168 420.056,250.372 420.183 C 250.577 420.309,250.865 420.219,251.011 419.982 C 251.299 419.516,253.210 418.630,253.700 418.735 C 253.865 418.771,254.000 418.649,254.000 418.465 C 254.000 418.281,254.966 417.642,256.147 417.045 C 257.328 416.447,258.678 415.601,259.147 415.164 C 259.616 414.726,260.000 414.461,260.000 414.574 C 260.000 414.687,260.908 414.244,262.018 413.590 C 263.127 412.935,264.207 412.400,264.418 412.400 C 264.628 412.400,264.800 412.220,264.800 412.000 C 264.800 411.780,264.935 411.629,265.100 411.664 C 265.671 411.784,267.002 411.050,267.523 410.326 C 267.810 409.927,268.263 409.600,268.530 409.600 C 268.796 409.600,269.677 409.150,270.486 408.600 C 271.295 408.050,272.237 407.600,272.579 407.600 C 272.920 407.600,273.200 407.423,273.200 407.208 C 273.200 406.992,273.650 406.702,274.200 406.564 C 274.750 406.426,275.200 406.153,275.200 405.957 C 275.200 405.760,275.560 405.600,276.000 405.600 C 276.440 405.600,276.800 405.420,276.800 405.200 C 276.800 404.980,277.070 404.800,277.400 404.800 C 277.730 404.800,278.001 404.665,278.003 404.500 C 278.006 404.091,280.324 402.800,281.056 402.800 C 281.381 402.800,281.555 402.650,281.441 402.467 C 281.328 402.284,282.113 401.751,283.184 401.284 C 284.256 400.816,285.250 400.242,285.394 400.010 C 285.538 399.777,285.823 399.691,286.028 399.817 C 286.232 399.944,286.400 399.870,286.400 399.653 C 286.400 399.436,287.406 398.767,288.636 398.165 C 289.866 397.563,291.081 396.869,291.336 396.622 C 291.591 396.375,292.847 395.639,294.127 394.987 C 295.407 394.334,296.802 393.622,297.227 393.405 C 297.652 393.188,298.000 392.862,298.000 392.682 C 298.000 392.501,298.180 392.464,298.400 392.600 C 298.620 392.736,298.800 392.657,298.800 392.424 C 298.800 392.191,299.070 392.000,299.400 392.000 C 299.730 392.000,300.000 391.820,300.000 391.600 C 300.000 391.380,300.197 391.200,300.438 391.200 C 300.679 391.200,301.357 390.858,301.945 390.439 C 302.533 390.020,304.451 388.922,306.207 387.997 C 307.963 387.073,309.490 386.201,309.600 386.059 C 309.710 385.916,310.340 385.517,311.000 385.171 C 313.242 383.996,314.199 383.401,314.494 383.000 C 314.656 382.780,314.791 382.747,314.794 382.926 C 314.802 383.332,318.000 381.564,318.000 381.153 C 318.000 380.892,319.352 380.275,320.048 380.220 C 320.184 380.209,320.887 379.750,321.610 379.200 C 322.333 378.650,323.077 378.245,323.263 378.300 C 323.448 378.355,323.600 378.220,323.600 378.000 C 323.600 377.780,323.932 377.600,324.338 377.600 C 324.744 377.600,325.402 377.240,325.800 376.800 C 326.198 376.360,326.678 376.000,326.866 376.000 C 327.055 376.000,328.645 375.100,330.400 374.000 C 332.155 372.900,333.692 372.000,333.815 372.000 C 333.938 372.000,335.023 371.370,336.227 370.600 C 337.431 369.830,338.592 369.200,338.808 369.200 C 339.023 369.200,339.200 368.990,339.200 368.733 C 339.200 368.477,339.315 368.381,339.455 368.522 C 339.595 368.662,340.208 368.422,340.817 367.988 C 341.425 367.555,342.121 367.200,342.362 367.200 C 342.603 367.200,342.800 367.041,342.800 366.847 C 342.800 366.652,343.115 366.394,343.500 366.272 C 344.341 366.007,347.316 364.310,347.604 363.932 C 347.716 363.784,348.305 363.539,348.913 363.386 C 349.521 363.233,350.248 362.782,350.527 362.383 C 350.807 361.983,351.568 361.526,352.218 361.367 C 352.868 361.207,353.490 360.948,353.600 360.790 C 353.900 360.360,359.200 357.175,359.200 357.425 C 359.200 357.543,359.785 357.203,360.500 356.668 C 361.697 355.772,364.329 354.267,364.800 354.209 C 365.261 354.152,367.600 352.605,367.600 352.357 C 367.600 352.208,368.065 351.970,368.634 351.827 C 369.203 351.684,370.047 351.215,370.510 350.784 C 370.972 350.353,371.586 350.000,371.874 350.000 C 372.163 350.000,373.275 349.370,374.347 348.600 C 375.419 347.830,376.589 347.200,376.948 347.200 C 377.306 347.200,377.600 346.990,377.600 346.733 C 377.600 346.477,377.709 346.376,377.843 346.509 C 377.976 346.643,378.460 346.403,378.918 345.976 C 379.376 345.549,380.077 345.200,380.475 345.200 C 380.874 345.200,381.200 345.020,381.200 344.800 C 381.200 344.580,381.372 344.400,381.582 344.400 C 381.915 344.400,384.377 342.795,387.569 340.498 C 390.089 338.684,393.398 334.744,393.823 333.051 C 393.967 332.476,394.216 332.086,394.376 332.185 C 394.536 332.284,394.667 332.123,394.667 331.827 C 394.667 331.531,394.994 330.598,395.395 329.754 C 395.795 328.910,396.123 327.534,396.123 326.695 C 396.123 325.857,396.275 325.077,396.462 324.962 C 396.966 324.650,396.898 119.708,396.393 119.396 C 396.170 119.258,396.092 118.974,396.221 118.766 C 396.546 118.240,395.576 113.993,394.881 112.900 C 394.566 112.405,394.432 112.000,394.583 112.000 C 394.734 112.000,394.573 111.715,394.225 111.368 C 393.877 111.020,393.683 110.589,393.794 110.410 C 393.905 110.230,393.726 109.981,393.398 109.854 C 393.069 109.728,392.800 109.353,392.800 109.020 C 392.800 108.687,392.170 107.766,391.400 106.973 C 390.630 106.180,390.000 105.356,390.000 105.142 C 390.000 104.928,389.848 104.847,389.661 104.962 C 389.475 105.077,388.811 104.638,388.186 103.986 C 387.562 103.334,386.801 102.800,386.497 102.800 C 386.193 102.800,385.192 102.282,384.272 101.650 C 383.352 101.017,382.440 100.492,382.245 100.484 C 382.049 100.475,381.779 100.303,381.645 100.102 C 381.510 99.900,380.545 99.313,379.500 98.797 C 378.455 98.281,377.600 97.710,377.600 97.529 C 377.600 97.348,377.330 97.200,377.000 97.200 C 376.670 97.200,376.400 97.020,376.400 96.800 C 376.400 96.580,376.168 96.400,375.885 96.400 C 375.153 96.400,372.277 94.895,371.800 94.263 C 371.580 93.971,370.946 93.620,370.392 93.482 C 369.838 93.344,368.990 92.864,368.509 92.415 C 368.027 91.967,367.459 91.600,367.245 91.600 C 366.828 91.600,361.932 88.795,361.600 88.366 C 361.490 88.224,360.995 87.981,360.500 87.827 C 360.005 87.672,359.600 87.378,359.600 87.173 C 359.600 86.968,359.210 86.800,358.733 86.800 C 358.257 86.800,357.982 86.685,358.123 86.544 C 358.437 86.230,355.119 84.406,354.700 84.663 C 354.535 84.764,354.400 84.678,354.400 84.470 C 354.400 84.263,354.085 83.979,353.700 83.840 C 352.389 83.366,351.204 82.529,351.469 82.264 C 351.614 82.119,351.431 82.000,351.061 82.000 C 350.415 82.000,348.814 81.255,348.400 80.762 C 348.145 80.458,346.228 79.438,344.303 78.581 C 343.465 78.209,342.919 77.730,343.064 77.496 C 343.207 77.265,343.137 77.192,342.909 77.333 C 342.681 77.474,342.068 77.271,341.547 76.883 C 341.026 76.495,339.565 75.649,338.300 75.004 C 337.035 74.359,336.000 73.689,336.000 73.516 C 336.000 73.342,335.730 73.200,335.400 73.200 C 335.070 73.200,334.800 73.020,334.800 72.800 C 334.800 72.580,334.665 72.421,334.500 72.447 C 333.696 72.574,333.179 72.358,333.406 71.990 C 333.545 71.765,333.511 71.620,333.330 71.669 C 332.763 71.823,331.200 71.165,331.200 70.773 C 331.200 70.568,330.840 70.400,330.400 70.400 C 329.960 70.400,329.600 70.220,329.600 70.000 C 329.600 69.780,329.319 69.600,328.976 69.600 C 328.602 69.600,328.468 69.413,328.642 69.132 C 328.831 68.827,328.721 68.745,328.326 68.896 C 327.989 69.026,327.226 68.704,326.608 68.173 C 325.996 67.647,325.355 67.305,325.182 67.411 C 325.009 67.518,324.808 67.469,324.734 67.302 C 324.660 67.136,323.565 66.475,322.300 65.833 C 321.035 65.192,320.000 64.529,320.000 64.360 C 320.000 64.192,319.609 63.930,319.131 63.778 C 318.653 63.626,317.899 63.164,317.455 62.751 C 317.012 62.338,316.345 62.000,315.974 62.000 C 315.602 62.000,315.074 61.730,314.800 61.400 C 314.526 61.070,314.054 60.800,313.751 60.800 C 313.448 60.800,313.200 60.620,313.200 60.400 C 313.200 60.180,312.930 60.000,312.600 60.000 C 312.270 60.000,312.000 59.809,312.000 59.576 C 312.000 59.343,311.820 59.264,311.600 59.400 C 311.380 59.536,311.200 59.457,311.200 59.224 C 311.200 58.991,310.885 58.796,310.500 58.791 C 310.115 58.786,309.350 58.430,308.800 58.000 C 308.250 57.570,307.569 57.214,307.287 57.209 C 307.006 57.204,306.671 56.930,306.545 56.600 C 306.418 56.270,306.072 56.000,305.775 56.000 C 305.478 56.000,304.572 55.550,303.762 55.000 C 302.951 54.450,302.033 54.000,301.721 54.000 C 301.408 54.000,301.264 53.820,301.400 53.600 C 301.536 53.380,301.299 53.200,300.873 53.200 C 300.447 53.200,299.905 52.967,299.668 52.682 C 299.432 52.397,298.608 51.917,297.837 51.615 C 297.067 51.312,296.529 50.915,296.642 50.732 C 296.755 50.550,296.477 50.400,296.024 50.400 C 295.571 50.400,295.200 50.256,295.200 50.080 C 295.200 49.905,294.558 49.529,293.774 49.245 C 292.990 48.961,292.251 48.476,292.132 48.167 C 292.013 47.858,291.770 47.695,291.590 47.806 C 291.411 47.917,290.948 47.691,290.561 47.304 C 290.174 46.917,289.844 46.682,289.829 46.782 C 289.782 47.080,287.200 45.454,287.200 45.126 C 287.200 44.961,286.959 44.918,286.664 45.031 C 286.369 45.144,285.896 44.956,285.611 44.614 C 285.327 44.271,284.308 43.643,283.347 43.218 C 282.386 42.793,281.600 42.244,281.600 41.999 C 281.600 41.754,281.440 41.651,281.245 41.772 C 281.050 41.893,280.683 41.741,280.429 41.435 C 280.175 41.129,279.525 40.767,278.984 40.632 C 278.443 40.496,278.000 40.208,278.000 39.992 C 278.000 39.777,277.629 39.600,277.176 39.600 C 276.723 39.600,276.439 39.461,276.544 39.291 C 276.649 39.122,275.939 38.654,274.967 38.252 C 273.995 37.850,273.200 37.359,273.200 37.160 C 273.200 36.962,272.769 36.800,272.243 36.800 C 271.716 36.800,271.188 36.546,271.069 36.235 C 270.950 35.925,270.210 35.439,269.426 35.155 C 268.642 34.871,268.000 34.495,268.000 34.320 C 268.000 34.144,267.719 34.000,267.376 34.000 C 266.991 34.000,266.863 33.809,267.041 33.500 C 267.199 33.225,267.186 33.129,267.012 33.286 C 266.837 33.443,266.313 33.360,265.847 33.101 C 265.381 32.842,264.865 32.668,264.700 32.715 C 264.535 32.762,264.400 32.620,264.400 32.400 C 264.400 32.180,264.130 32.000,263.800 32.000 C 263.470 32.000,263.200 31.838,263.200 31.640 C 263.200 31.441,262.391 30.946,261.401 30.540 C 260.412 30.133,259.602 29.665,259.601 29.500 C 259.601 29.335,259.319 29.200,258.976 29.200 C 258.607 29.200,258.469 29.012,258.638 28.738 C 258.807 28.464,258.749 28.385,258.494 28.542 C 258.258 28.688,257.825 28.571,257.532 28.281 C 256.933 27.689,255.555 27.040,255.100 27.136 C 254.935 27.171,254.800 27.020,254.800 26.800 C 254.800 26.580,254.519 26.400,254.176 26.400 C 253.833 26.400,253.667 26.216,253.806 25.990 C 253.945 25.765,253.911 25.606,253.730 25.637 C 253.032 25.759,252.437 25.581,251.929 25.100 C 251.020 24.241,248.131 22.803,247.859 23.074 C 247.717 23.217,247.600 23.144,247.600 22.912 C 247.600 22.681,247.015 22.196,246.300 21.835 C 244.639 20.996,243.454 20.271,243.200 19.939 C 243.090 19.795,241.830 19.063,240.400 18.312 C 236.918 16.485,235.043 15.442,234.800 15.200 C 234.690 15.090,234.240 14.804,233.800 14.564 C 230.235 12.621,228.966 11.856,228.755 11.521 C 228.621 11.307,228.351 11.134,228.155 11.137 C 227.503 11.147,225.200 9.914,225.200 9.554 C 225.200 9.359,224.930 9.200,224.600 9.200 C 224.270 9.200,224.000 9.023,224.000 8.808 C 224.000 8.592,223.505 8.293,222.900 8.143 C 221.770 7.862,218.705 6.035,218.467 5.500 C 218.393 5.335,218.078 5.200,217.767 5.200 C 217.455 5.200,217.200 5.020,217.200 4.800 C 217.200 4.580,216.853 4.400,216.429 4.400 C 216.004 4.400,215.411 4.154,215.110 3.853 C 214.809 3.552,214.187 3.186,213.729 3.041 C 213.270 2.895,212.486 2.422,211.986 1.988 C 211.487 1.555,210.745 1.200,210.339 1.200 C 209.932 1.200,209.600 1.050,209.600 0.867 C 209.600 0.317,194.962 -0.167,191.700 0.275 M269.446 152.868 C 274.261 155.545,278.740 158.031,279.400 158.391 C 282.163 159.900,281.999 156.838,281.999 206.800 C 281.999 260.072,282.910 253.363,275.080 257.735 C 274.090 258.287,272.545 259.203,271.648 259.770 C 270.750 260.336,269.937 260.800,269.841 260.800 C 269.744 260.800,267.836 261.880,265.600 263.200 C 263.364 264.520,261.472 265.600,261.395 265.600 C 261.318 265.600,258.947 266.968,256.127 268.639 C 247.511 273.746,246.660 274.001,243.712 272.356 C 242.362 271.603,234.301 266.940,227.200 262.804 C 220.566 258.940,215.707 256.152,214.713 255.639 C 214.114 255.331,213.214 254.641,212.713 254.107 L 211.800 253.136 211.689 234.079 C 211.609 220.455,211.708 214.706,212.035 213.916 C 212.413 213.004,215.826 210.400,216.644 210.400 C 216.772 210.400,217.354 210.066,217.938 209.657 C 218.522 209.249,219.873 208.432,220.939 207.843 C 222.005 207.254,226.415 204.731,230.739 202.235 C 235.063 199.740,239.230 197.338,240.000 196.898 C 240.770 196.457,242.210 195.627,243.200 195.053 C 245.765 193.566,247.883 193.646,250.962 195.347 C 252.303 196.089,254.267 197.172,255.327 197.755 C 256.387 198.337,257.422 198.710,257.627 198.583 C 257.851 198.445,258.000 188.629,258.000 173.976 C 258.000 143.201,256.624 145.738,269.446 152.868 M64.578 194.200 C 66.315 195.190,67.777 196.000,67.827 196.000 C 67.904 196.000,71.280 197.955,84.400 205.598 C 85.830 206.432,88.719 208.112,90.820 209.333 C 96.100 212.401,95.632 209.464,95.508 238.790 L 95.400 264.181 94.370 264.543 C 93.477 264.857,92.387 264.357,86.170 260.786 C 82.227 258.520,78.116 256.202,77.036 255.633 C 75.956 255.065,74.381 253.953,73.536 253.162 L 72.000 251.724 72.000 239.481 C 72.000 224.731,72.472 226.093,66.096 222.434 C 60.231 219.069,60.939 219.053,54.808 222.691 C 48.802 226.255,49.213 225.023,49.206 239.469 L 49.200 251.539 48.196 252.731 C 47.343 253.745,44.820 255.289,33.200 261.906 C 32.430 262.345,30.990 263.173,30.000 263.747 C 25.380 266.425,25.600 267.687,25.600 238.552 C 25.600 211.325,25.546 211.984,27.866 210.786 C 28.490 210.464,30.770 209.165,32.933 207.900 C 35.096 206.635,36.926 205.600,37.000 205.600 C 37.074 205.600,38.964 204.520,41.200 203.200 C 43.436 201.880,45.326 200.800,45.400 200.800 C 45.474 200.800,47.364 199.720,49.600 198.400 C 51.836 197.080,53.710 196.000,53.764 196.000 C 53.819 196.000,55.285 195.190,57.022 194.200 C 58.759 193.210,60.459 192.400,60.800 192.400 C 61.141 192.400,62.841 193.210,64.578 194.200 M160.283 195.949 C 162.877 197.445,167.430 200.074,170.400 201.791 C 173.370 203.509,176.610 205.368,177.600 205.924 C 178.590 206.480,180.720 207.714,182.333 208.667 C 183.946 209.620,185.418 210.400,185.605 210.400 C 185.791 210.400,186.586 211.006,187.372 211.747 L 188.800 213.094 188.800 232.541 L 188.800 251.987 187.700 253.173 C 186.859 254.080,176.011 260.800,175.389 260.800 C 175.321 260.800,173.436 261.880,171.200 263.200 C 168.964 264.520,167.055 265.600,166.958 265.600 C 166.860 265.600,165.660 266.292,164.290 267.137 C 154.133 273.408,151.971 273.602,145.800 268.797 C 145.580 268.625,144.680 268.086,143.800 267.598 C 142.034 266.618,131.619 260.592,124.303 256.318 C 121.058 254.421,119.420 253.213,119.003 252.407 C 117.961 250.390,118.118 214.667,119.177 212.930 C 119.804 211.902,128.116 206.400,129.042 206.400 C 129.138 206.400,129.888 205.975,130.709 205.455 C 131.529 204.935,135.170 202.796,138.800 200.700 C 142.430 198.604,146.120 196.473,147.000 195.963 C 153.681 192.094,153.597 192.095,160.283 195.949 M347.479 197.056 C 351.176 199.176,358.148 203.169,362.974 205.927 C 367.800 208.686,372.300 211.436,372.974 212.039 L 374.200 213.134 374.200 219.125 C 374.200 226.391,374.233 226.348,364.138 232.033 C 363.444 232.424,360.992 233.926,358.690 235.371 C 351.507 239.881,350.800 239.553,350.800 231.715 L 350.800 226.808 348.700 225.459 C 340.142 219.959,339.838 219.872,336.375 221.928 C 334.959 222.768,332.927 223.957,331.859 224.569 C 328.333 226.591,328.400 226.425,328.400 233.124 C 328.400 237.264,328.551 239.234,328.900 239.669 C 329.175 240.011,335.790 243.937,343.600 248.394 C 365.145 260.687,364.427 259.616,354.600 264.803 C 352.400 265.964,350.420 267.043,350.200 267.200 C 349.980 267.357,348.000 268.435,345.800 269.596 C 343.600 270.757,341.629 271.863,341.420 272.053 C 340.625 272.779,337.608 272.415,336.000 271.400 C 335.129 270.850,334.337 270.400,334.241 270.400 C 334.144 270.400,332.236 269.320,330.000 268.000 C 327.764 266.680,325.851 265.600,325.748 265.600 C 325.646 265.600,324.577 264.970,323.373 264.200 C 322.169 263.430,321.121 262.800,321.043 262.800 C 320.351 262.800,305.989 254.121,305.302 253.289 L 304.404 252.200 304.402 233.086 C 304.400 211.187,304.087 212.988,308.326 210.475 C 314.089 207.058,320.074 203.600,320.226 203.600 C 320.313 203.600,321.369 202.970,322.573 202.200 C 323.777 201.430,324.846 200.800,324.948 200.800 C 325.051 200.800,326.964 199.720,329.200 198.400 C 331.436 197.080,333.332 196.000,333.413 196.000 C 333.494 196.000,334.604 195.370,335.880 194.601 C 339.309 192.533,339.763 192.629,347.479 197.056 M151.921 221.395 C 151.108 221.948,150.355 222.400,150.248 222.400 C 149.989 222.400,143.672 226.242,142.960 226.833 C 142.525 227.194,142.400 228.655,142.400 233.387 C 142.400 240.462,141.905 239.581,147.800 243.005 C 150.000 244.283,152.171 245.568,152.624 245.860 C 153.604 246.493,153.541 246.522,162.100 241.537 L 164.800 239.965 164.800 233.440 L 164.800 226.916 159.671 223.873 C 153.257 220.067,153.678 220.201,151.921 221.395 M243.768 222.048 C 242.246 222.950,239.781 224.411,238.291 225.296 L 235.581 226.903 235.691 233.494 L 235.800 240.085 241.187 243.222 L 246.574 246.359 248.787 245.101 C 250.004 244.408,252.530 242.930,254.400 241.816 L 257.800 239.791 257.910 233.507 L 258.020 227.223 256.310 226.138 C 254.760 225.155,252.940 224.083,248.168 221.344 L 246.536 220.408 243.768 222.048 M342.471 226.273 C 346.603 228.680,346.443 228.410,346.314 232.774 L 346.200 236.600 343.000 238.498 C 339.073 240.828,338.582 240.752,333.300 237.002 C 332.132 236.173,331.919 229.297,333.033 228.373 C 337.215 224.902,339.315 224.434,342.471 226.273 " stroke="none" fill="#8bc304" fill-rule="evenodd"></path><path id="path3" d="M150.800 193.894 C 149.590 194.523,147.880 195.454,147.000 195.963 C 146.120 196.473,142.430 198.604,138.800 200.700 C 135.170 202.796,131.529 204.935,130.709 205.455 C 129.888 205.975,129.138 206.400,129.042 206.400 C 128.116 206.400,119.804 211.902,119.177 212.930 C 118.118 214.667,117.961 250.390,119.003 252.407 C 119.420 253.213,121.058 254.421,124.303 256.318 C 131.619 260.592,142.034 266.618,143.800 267.598 C 144.680 268.086,145.580 268.625,145.800 268.797 C 151.971 273.602,154.133 273.408,164.290 267.137 C 165.660 266.292,166.860 265.600,166.958 265.600 C 167.055 265.600,168.964 264.520,171.200 263.200 C 173.436 261.880,175.321 260.800,175.389 260.800 C 176.011 260.800,186.859 254.080,187.700 253.173 L 188.800 251.987 188.800 232.541 L 188.800 213.094 187.372 211.747 C 186.586 211.006,185.791 210.400,185.605 210.400 C 185.418 210.400,183.946 209.620,182.333 208.667 C 180.720 207.714,178.590 206.480,177.600 205.924 C 176.610 205.368,173.370 203.509,170.400 201.791 C 152.815 191.623,154.143 192.158,150.800 193.894 M155.820 193.951 C 156.029 194.143,157.073 194.780,158.139 195.364 C 159.205 195.949,163.705 198.523,168.139 201.085 C 172.573 203.646,178.715 207.195,181.790 208.971 C 189.081 213.183,188.387 210.707,188.394 232.540 C 188.401 252.586,188.371 252.860,186.085 254.042 C 185.492 254.349,182.151 256.265,178.661 258.300 C 175.171 260.335,172.263 262.000,172.198 262.000 C 172.134 262.000,169.800 263.350,167.013 265.000 C 164.226 266.650,161.882 268.000,161.806 268.000 C 161.729 268.000,160.257 268.833,158.535 269.851 C 153.792 272.655,153.627 272.639,146.800 268.701 C 143.610 266.861,138.390 263.853,135.200 262.017 C 120.605 253.617,119.959 253.199,119.364 251.777 C 118.907 250.683,118.800 247.069,118.800 232.800 C 118.800 211.761,118.578 212.850,123.400 210.208 C 124.500 209.605,128.280 207.440,131.800 205.397 C 153.739 192.663,154.191 192.447,155.820 193.951 M152.580 220.359 C 152.371 220.557,151.570 221.059,150.800 221.475 C 147.506 223.255,142.784 226.137,142.398 226.602 C 142.134 226.920,142.020 229.523,142.090 233.652 L 142.200 240.197 147.200 243.259 C 153.933 247.382,153.074 247.346,159.300 243.776 C 166.060 239.899,165.600 240.656,165.600 233.400 C 165.600 226.167,166.067 226.944,159.370 223.045 C 154.165 220.015,153.304 219.675,152.580 220.359 M159.671 223.873 L 164.800 226.916 164.800 233.440 L 164.800 239.965 162.100 241.537 C 153.541 246.522,153.604 246.493,152.624 245.860 C 152.171 245.568,150.000 244.283,147.800 243.005 C 141.905 239.581,142.400 240.462,142.400 233.387 C 142.400 228.655,142.525 227.194,142.960 226.833 C 143.672 226.242,149.989 222.400,150.248 222.400 C 150.355 222.400,151.108 221.948,151.921 221.395 C 153.678 220.201,153.257 220.067,159.671 223.873 " stroke="none" fill="#b8db67" fill-rule="evenodd"></path><path id="path4" d="M258.800 148.800 C 258.018 149.582,258.000 150.133,258.000 173.976 C 258.000 188.629,257.851 198.445,257.627 198.583 C 257.422 198.710,256.387 198.337,255.327 197.755 C 254.267 197.172,252.303 196.089,250.962 195.347 C 247.883 193.646,245.765 193.566,243.200 195.053 C 242.210 195.627,240.770 196.457,240.000 196.898 C 239.230 197.338,235.063 199.740,230.739 202.235 C 226.415 204.731,222.005 207.254,220.939 207.843 C 219.873 208.432,218.522 209.249,217.938 209.657 C 217.354 210.066,216.772 210.400,216.644 210.400 C 215.826 210.400,212.413 213.004,212.035 213.916 C 211.708 214.706,211.609 220.455,211.689 234.079 L 211.800 253.136 212.713 254.107 C 213.214 254.641,214.114 255.331,214.713 255.639 C 215.707 256.152,220.566 258.940,227.200 262.804 C 234.301 266.940,242.362 271.603,243.712 272.356 C 246.660 274.001,247.511 273.746,256.127 268.639 C 258.947 266.968,261.318 265.600,261.395 265.600 C 261.472 265.600,263.364 264.520,265.600 263.200 C 267.836 261.880,269.744 260.800,269.841 260.800 C 269.937 260.800,270.750 260.336,271.648 259.770 C 272.545 259.203,274.090 258.287,275.080 257.735 C 282.910 253.363,281.999 260.072,281.999 206.800 C 281.999 156.838,282.163 159.900,279.400 158.391 C 278.740 158.031,274.261 155.545,269.446 152.868 C 259.999 147.614,259.990 147.610,258.800 148.800 M270.422 154.012 C 275.580 156.879,280.115 159.599,280.500 160.057 C 281.158 160.838,281.200 163.667,281.200 206.975 L 281.200 253.061 280.300 253.861 C 279.805 254.301,276.160 256.523,272.200 258.797 C 268.240 261.072,263.050 264.074,260.667 265.467 C 258.283 266.860,256.286 268.000,256.227 268.000 C 256.169 268.000,254.252 269.080,251.967 270.400 C 246.394 273.620,247.445 273.876,233.712 265.949 C 227.184 262.181,221.203 258.740,220.421 258.303 C 211.123 253.106,212.003 255.697,212.001 233.519 C 212.000 211.873,211.478 214.034,217.570 210.449 C 222.031 207.824,232.092 202.028,235.400 200.178 C 236.280 199.685,238.889 198.184,241.198 196.841 C 246.571 193.717,246.898 193.716,252.432 196.800 C 257.121 199.413,257.764 199.589,258.386 198.426 C 258.658 197.917,258.800 189.382,258.800 173.493 C 258.800 160.205,258.920 149.213,259.067 149.067 C 259.791 148.343,261.776 149.207,270.422 154.012 M57.022 194.200 C 55.285 195.190,53.819 196.000,53.764 196.000 C 53.710 196.000,51.836 197.080,49.600 198.400 C 47.364 199.720,45.474 200.800,45.400 200.800 C 45.326 200.800,43.436 201.880,41.200 203.200 C 38.964 204.520,37.074 205.600,37.000 205.600 C 36.926 205.600,35.096 206.635,32.933 207.900 C 30.770 209.165,28.490 210.464,27.866 210.786 C 25.546 211.984,25.600 211.325,25.600 238.552 C 25.600 267.687,25.380 266.425,30.000 263.747 C 30.990 263.173,32.430 262.345,33.200 261.906 C 44.820 255.289,47.343 253.745,48.196 252.731 L 49.200 251.539 49.206 239.469 C 49.213 225.023,48.802 226.255,54.808 222.691 C 60.939 219.053,60.231 219.069,66.096 222.434 C 72.472 226.093,72.000 224.731,72.000 239.481 L 72.000 251.724 73.536 253.162 C 74.381 253.953,75.956 255.065,77.036 255.633 C 78.116 256.202,82.227 258.520,86.170 260.786 C 92.387 264.357,93.477 264.857,94.370 264.543 L 95.400 264.181 95.508 238.790 C 95.632 209.464,96.100 212.401,90.820 209.333 C 88.719 208.112,85.830 206.432,84.400 205.598 C 71.280 197.955,67.904 196.000,67.827 196.000 C 67.777 196.000,66.315 195.190,64.578 194.200 C 62.841 193.210,61.141 192.400,60.800 192.400 C 60.459 192.400,58.759 193.210,57.022 194.200 M66.220 195.723 C 68.629 197.111,74.911 200.734,80.179 203.775 C 85.448 206.816,90.578 209.747,91.579 210.288 C 92.581 210.829,93.806 211.717,94.303 212.261 L 95.206 213.252 95.103 238.526 L 95.000 263.800 94.040 263.936 C 92.953 264.089,92.517 263.887,87.067 260.700 C 84.904 259.435,83.074 258.400,83.001 258.400 C 82.506 258.400,74.044 253.113,73.400 252.402 C 72.645 251.567,72.589 250.803,72.400 238.819 C 72.169 224.147,72.692 225.767,67.099 222.417 C 60.295 218.342,60.884 218.322,53.469 222.889 C 48.519 225.938,48.800 224.966,48.800 239.046 C 48.800 253.865,49.977 251.731,38.055 258.527 C 28.693 263.865,26.741 264.665,26.243 263.367 C 25.700 261.954,26.005 213.842,26.563 212.835 C 27.255 211.585,59.317 193.200,60.804 193.200 C 61.374 193.200,63.812 194.335,66.220 195.723 M335.880 194.601 C 334.604 195.370,333.494 196.000,333.413 196.000 C 333.332 196.000,331.436 197.080,329.200 198.400 C 326.964 199.720,325.051 200.800,324.948 200.800 C 324.846 200.800,323.777 201.430,322.573 202.200 C 321.369 202.970,320.313 203.600,320.226 203.600 C 320.074 203.600,314.089 207.058,308.326 210.475 C 304.087 212.988,304.400 211.187,304.402 233.086 L 304.404 252.200 305.302 253.289 C 305.989 254.121,320.351 262.800,321.043 262.800 C 321.121 262.800,322.169 263.430,323.373 264.200 C 324.577 264.970,325.646 265.600,325.748 265.600 C 325.851 265.600,327.764 266.680,330.000 268.000 C 332.236 269.320,334.144 270.400,334.241 270.400 C 334.337 270.400,335.129 270.850,336.000 271.400 C 337.608 272.415,340.625 272.779,341.420 272.053 C 341.629 271.863,343.600 270.757,345.800 269.596 C 348.000 268.435,349.980 267.357,350.200 267.200 C 350.420 267.043,352.400 265.964,354.600 264.803 C 364.427 259.616,365.145 260.687,343.600 248.394 C 335.790 243.937,329.175 240.011,328.900 239.669 C 328.551 239.234,328.400 237.264,328.400 233.124 C 328.400 226.425,328.333 226.591,331.859 224.569 C 332.927 223.957,334.959 222.768,336.375 221.928 C 339.838 219.872,340.142 219.959,348.700 225.459 L 350.800 226.808 350.800 231.715 C 350.800 239.553,351.507 239.881,358.690 235.371 C 360.992 233.926,363.444 232.424,364.138 232.033 C 374.233 226.348,374.200 226.391,374.200 219.125 L 374.200 213.134 372.974 212.039 C 372.300 211.436,367.800 208.686,362.974 205.927 C 358.148 203.169,351.176 199.176,347.479 197.056 C 339.763 192.629,339.309 192.533,335.880 194.601 M342.311 194.791 C 343.570 195.447,345.500 196.501,346.600 197.136 C 356.442 202.809,368.133 209.503,369.600 210.305 C 373.469 212.420,373.782 212.997,373.937 218.296 C 374.160 225.968,375.441 224.539,359.745 234.134 C 351.351 239.265,351.600 239.313,351.600 232.577 C 351.600 226.379,351.714 226.564,345.719 223.030 C 339.433 219.324,339.746 219.322,333.400 223.102 L 328.200 226.200 328.200 233.172 L 328.200 240.144 330.089 241.254 C 331.128 241.864,332.928 242.897,334.089 243.549 C 335.250 244.201,341.690 247.885,348.400 251.737 C 363.751 260.548,363.302 259.524,354.000 264.512 C 352.350 265.397,350.820 266.248,350.600 266.403 C 350.261 266.643,344.516 269.741,341.200 271.473 C 339.922 272.140,338.468 272.137,337.200 271.465 C 336.650 271.173,333.050 269.125,329.200 266.914 C 325.350 264.703,321.480 262.493,320.600 262.002 C 319.720 261.511,317.830 260.430,316.400 259.600 C 312.545 257.361,310.835 256.388,308.464 255.079 C 304.618 252.957,304.803 254.075,304.803 233.000 C 304.803 210.407,303.451 213.792,315.128 207.139 C 315.859 206.722,318.829 205.010,321.728 203.332 C 341.032 192.166,338.937 193.035,342.311 194.791 M240.637 223.217 C 234.316 227.061,234.813 226.182,234.806 233.519 C 234.799 240.386,234.802 240.393,238.248 242.200 C 239.087 242.640,241.204 243.855,242.951 244.900 C 246.824 247.216,246.287 247.226,250.400 244.766 C 252.270 243.648,254.482 242.381,255.317 241.950 C 258.382 240.367,258.401 240.315,258.394 233.500 C 258.387 226.167,258.899 227.047,252.380 223.173 C 245.982 219.371,246.966 219.368,240.637 223.217 M252.200 223.667 C 253.520 224.430,255.370 225.541,256.310 226.138 L 258.020 227.223 257.910 233.507 L 257.800 239.791 254.400 241.816 C 252.530 242.930,250.004 244.408,248.787 245.101 L 246.574 246.359 241.187 243.222 L 235.800 240.085 235.691 233.494 L 235.581 226.903 238.291 225.296 C 239.781 224.411,242.246 222.950,243.768 222.048 L 246.536 220.408 248.168 221.344 C 249.066 221.860,250.880 222.905,252.200 223.667 M336.133 226.362 C 332.229 228.713,332.400 228.426,332.400 232.630 C 332.400 236.839,332.132 236.426,336.548 239.020 C 339.478 240.742,339.178 240.766,343.000 238.498 L 346.200 236.600 346.314 232.774 C 346.443 228.410,346.603 228.680,342.471 226.273 C 339.410 224.490,339.238 224.492,336.133 226.362 M343.300 227.479 L 345.600 228.858 345.600 232.583 L 345.600 236.309 342.718 238.021 C 339.204 240.108,339.601 240.110,335.869 237.987 L 332.800 236.241 332.800 232.782 C 332.800 228.826,332.731 228.932,336.777 226.685 C 339.634 225.099,339.252 225.053,343.300 227.479 " stroke="none" fill="#7a9f28" fill-rule="evenodd"></path></g></svg>